<?xml version="1.0" encoding="UTF-8"?>
<svg xmlns="http://www.w3.org/2000/svg" viewBox="0 128 1086 302">
  <style>
    .face { fill:#fff; stroke:#231f20; stroke-width:1.3; stroke-linejoin:round }
    .ln   { fill:none; stroke:#231f20; stroke-width:1.3; stroke-linecap:round }
    .dash { fill:none; stroke:#231f20; stroke-width:1.3; stroke-dasharray:10,5; stroke-linecap:round }
    .label{ font-family:Helvetica,Arial,sans-serif; font-size:13px; font-weight:700; fill:#231f20 }
    .sm   { font-size:10px }
    .hand { fill:#fff; stroke:#231f20; stroke-width:1.3; stroke-linejoin:round; stroke-linecap:round }
    .arr  { fill:#231f20 }
  </style>
  <defs>
    <marker id="ah" viewBox="0 0 10 10" refX="5" refY="5"
            markerWidth="7" markerHeight="7" orient="auto-start-reverse">
      <path d="M0,0 L10,5 L0,10Z" class="arr"/>
    </marker>
  </defs>
  <g>
    <polygon class="face" points="118,171 328,171 332.1,167.8 122.1,167.8"/>
    <polygon class="face" points="328,171 332.1,167.8 332.1,267.8 328,271"/>
    <rect class="face" x="118" y="171" width="210" height="100"/>
    <text class="label" x="128" y="187">SCREEN 1</text>
  </g>
  <g>
    <polygon class="face" points="96,198 306,198 310.1,194.8 100.1,194.8"/>
    <polygon class="face" points="306,198 310.1,194.8 310.1,249.8 306,253"/>
    <rect class="face" x="96" y="198" width="210" height="55"/>
    <text class="label" x="106" y="214">BLOCK 3</text>
  </g>
  <line class="dash" x1="59" y1="245" x2="336" y2="245"/>
  <line class="dash" x1="59" y1="261" x2="336" y2="261"/>
  <text class="label sm" x="82" y="257">BANK MANAGER RSX</text>
  <g>
    <polygon class="face" points="74,261 284,261 288.1,257.8 78.1,257.8"/>
    <polygon class="face" points="284,261 288.1,257.8 288.1,332.8 284,336"/>
    <rect class="face" x="74" y="261" width="210" height="75"/>
    <text class="label" x="84" y="277">BLOCK 2</text>
  </g>
  <g>
    <polygon class="face" points="38.8,288 248.8,288 252.9,284.8 42.9,284.8"/>
    <polygon class="face" points="248.8,288 252.9,284.8 252.9,339.8 248.8,343"/>
    <rect class="face" x="38.8" y="288" width="210" height="55"/>
    <text class="label" x="48.8" y="304">BLOCK 1</text>
  </g>
  <g>
    <polygon class="face" points="30,340 240,340 244.1,336.8 34.1,336.8"/>
    <polygon class="face" points="240,340 244.1,336.8 244.1,416.8 240,420"/>
    <rect class="face" x="30" y="340" width="210" height="80"/>
    <text class="label" x="40" y="384">BLOCK 0</text>
  </g>
  <line class="ln" x1="28.8" y1="293" x2="28.8" y2="338" marker-start="url(#ah)" marker-end="url(#ah)"/>
  <g>
    <polygon class="face" points="462,292 647,292 651.1,288.8 466.1,288.8"/>
    <polygon class="face" points="647,292 651.1,288.8 651.1,383.8 647,387"/>
    <rect class="face" x="462" y="292" width="185" height="95"/>
    <text class="label" x="472" y="308">SCREEN 2</text>
  </g>
  <g>
    <polygon class="face" points="440,310 625,310 629.1,306.8 444.1,306.8"/>
    <polygon class="face" points="625,310 629.1,306.8 629.1,371.8 625,375"/>
    <rect class="face" x="440" y="310" width="185" height="65"/>
    <text class="label" x="450" y="345.8">BLOCK 4</text>
  </g>
  <line class="ln" x1="430" y1="315" x2="430" y2="370" marker-start="url(#ah)" marker-end="url(#ah)"/>
  <g>
    <polygon class="face" points="602,242 787,242 791.1,238.8 606.1,238.8"/>
    <polygon class="face" points="787,242 791.1,238.8 791.1,333.8 787,337"/>
    <rect class="face" x="602" y="242" width="185" height="95"/>
    <text class="label" x="612" y="258">SCREEN 3</text>
  </g>
  <g>
    <polygon class="face" points="580,260 765,260 769.1,256.8 584.1,256.8"/>
    <polygon class="face" points="765,260 769.1,256.8 769.1,321.8 765,325"/>
    <rect class="face" x="580" y="260" width="185" height="65"/>
    <text class="label" x="590" y="295.8">BLOCK 5</text>
  </g>
  <line class="ln" x1="570" y1="265" x2="570" y2="320" marker-start="url(#ah)" marker-end="url(#ah)"/>
  <g>
    <polygon class="face" points="742,192 927,192 931.1,188.8 746.1,188.8"/>
    <polygon class="face" points="927,192 931.1,188.8 931.1,283.8 927,287"/>
    <rect class="face" x="742" y="192" width="185" height="95"/>
    <text class="label" x="752" y="208">SCREEN 4</text>
  </g>
  <g>
    <polygon class="face" points="720,210 905,210 909.1,206.8 724.1,206.8"/>
    <polygon class="face" points="905,210 909.1,206.8 909.1,271.8 905,275"/>
    <rect class="face" x="720" y="210" width="185" height="65"/>
    <text class="label" x="730" y="245.8">BLOCK 6</text>
  </g>
  <line class="ln" x1="710" y1="215" x2="710" y2="270" marker-start="url(#ah)" marker-end="url(#ah)"/>
  <g>
    <polygon class="face" points="882,142 1067,142 1071.1,138.8 886.1,138.8"/>
    <polygon class="face" points="1067,142 1071.1,138.8 1071.1,233.8 1067,237"/>
    <rect class="face" x="882" y="142" width="185" height="95"/>
    <text class="label" x="892" y="158">SCREEN 5</text>
  </g>
  <g>
    <polygon class="face" points="860,160 1045,160 1049.1,156.8 864.1,156.8"/>
    <polygon class="face" points="1045,160 1049.1,156.8 1049.1,221.8 1045,225"/>
    <rect class="face" x="860" y="160" width="185" height="65"/>
    <text class="label" x="870" y="195.8">BLOCK 7</text>
  </g>
  <line class="ln" x1="850" y1="165" x2="850" y2="220" marker-start="url(#ah)" marker-end="url(#ah)"/>
  <g transform="translate(318,281) scale(1.5)">
    <path class="hand" d="M 0,-12 C 18,-18 42,-20 60,-14 C 70,-10 78,-4 82,0 L 86,-20 C 88,-28 92,-28 92,-20 L 88,2 L 92,-24 C 94,-32 98,-32 98,-24 L 94,3 L 97,-18 C 99,-25 102,-25 101,-18 L 99,4 L 101,-11 C 103,-17 105,-15 104,-9 L 102,5 C 94,14 76,20 58,20 C 38,19 16,14 0,6 Z"/>
    <path class="hand" d="M 68,8 C 64,18 58,30 56,36 C 55,40 59,40 60,36 C 63,26 67,16 70,8 Z"/>
  </g>
</svg>