<?xml version="1.0" encoding="UTF-8"?>
<svg xmlns="http://www.w3.org/2000/svg" viewBox="0 0 498.898 708.661">
<g>
<line x1="55" y1="191.9" x2="439" y2="191.9" stroke="black" stroke-width="0.8"/>
<line x1="55" y1="310.2" x2="439" y2="310.2" stroke="black" stroke-width="0.8"/>
<rect x="85.00" y="170.00" width="17.00" height="4.50" fill="none" stroke="black" stroke-width="0.4"/>
<rect x="102.80" y="170.00" width="17.00" height="4.50" fill="none" stroke="black" stroke-width="0.4"/>
<rect x="120.60" y="170.00" width="17.00" height="4.50" fill="none" stroke="black" stroke-width="0.4"/>
<rect x="138.40" y="170.00" width="17.00" height="4.50" fill="none" stroke="black" stroke-width="0.4"/>
<rect x="156.20" y="170.00" width="17.00" height="4.50" fill="none" stroke="black" stroke-width="0.4"/>
<rect x="174.00" y="170.00" width="17.00" height="4.50" fill="none" stroke="black" stroke-width="0.4"/>
<rect x="191.80" y="170.00" width="17.00" height="4.50" fill="none" stroke="black" stroke-width="0.4"/>
<rect x="209.60" y="170.00" width="17.00" height="4.50" fill="none" stroke="black" stroke-width="0.4"/>
<rect x="227.40" y="170.00" width="17.00" height="4.50" fill="none" stroke="black" stroke-width="0.4"/>
<rect x="245.20" y="170.00" width="17.00" height="4.50" fill="none" stroke="black" stroke-width="0.4"/>
<rect x="263.00" y="170.00" width="17.00" height="4.50" fill="none" stroke="black" stroke-width="0.4"/>
<rect x="280.80" y="170.00" width="17.00" height="4.50" fill="none" stroke="black" stroke-width="0.4"/>
<rect x="298.60" y="170.00" width="17.00" height="4.50" fill="none" stroke="black" stroke-width="0.4"/>
<rect x="85.00" y="206.00" width="25.90" height="17.00" rx="1.5" ry="1.5" fill="none" stroke="black" stroke-width="0.8"/>
<rect x="111.70" y="206.00" width="17.00" height="17.00" rx="1.5" ry="1.5" fill="none" stroke="black" stroke-width="0.8"/>
<rect x="129.50" y="206.00" width="17.00" height="17.00" rx="1.5" ry="1.5" fill="none" stroke="black" stroke-width="0.8"/>
<rect x="147.30" y="206.00" width="17.00" height="17.00" rx="1.5" ry="1.5" fill="none" stroke="black" stroke-width="0.8"/>
<rect x="165.10" y="206.00" width="17.00" height="17.00" rx="1.5" ry="1.5" fill="none" stroke="black" stroke-width="0.8"/>
<rect x="182.90" y="206.00" width="17.00" height="17.00" rx="1.5" ry="1.5" fill="none" stroke="black" stroke-width="0.8"/>
<rect x="200.70" y="206.00" width="17.00" height="17.00" rx="1.5" ry="1.5" fill="none" stroke="black" stroke-width="0.8"/>
<rect x="218.50" y="206.00" width="17.00" height="17.00" rx="1.5" ry="1.5" fill="none" stroke="black" stroke-width="0.8"/>
<rect x="236.30" y="206.00" width="17.00" height="17.00" rx="1.5" ry="1.5" fill="none" stroke="black" stroke-width="0.8"/>
<rect x="254.10" y="206.00" width="17.00" height="17.00" rx="1.5" ry="1.5" fill="none" stroke="black" stroke-width="0.8"/>
<rect x="271.90" y="206.00" width="17.00" height="17.00" rx="1.5" ry="1.5" fill="none" stroke="black" stroke-width="0.8"/>
<rect x="289.70" y="206.00" width="17.00" height="17.00" rx="1.5" ry="1.5" fill="none" stroke="black" stroke-width="0.8"/>
<rect x="307.50" y="206.00" width="17.00" height="17.00" rx="1.5" ry="1.5" fill="none" stroke="black" stroke-width="0.8"/>
<rect x="325.30" y="206.00" width="17.00" height="17.00" rx="1.5" ry="1.5" fill="none" stroke="black" stroke-width="0.8"/>
<rect x="343.10" y="206.00" width="17.00" height="17.00" rx="1.5" ry="1.5" fill="none" stroke="black" stroke-width="0.8"/>
<rect x="85.00" y="223.80" width="30.35" height="17.00" rx="1.5" ry="1.5" fill="none" stroke="black" stroke-width="0.8"/>
<rect x="116.15" y="223.80" width="17.00" height="17.00" rx="1.5" ry="1.5" fill="none" stroke="black" stroke-width="0.8"/>
<rect x="133.95" y="223.80" width="17.00" height="17.00" rx="1.5" ry="1.5" fill="none" stroke="black" stroke-width="0.8"/>
<rect x="151.75" y="223.80" width="17.00" height="17.00" rx="1.5" ry="1.5" fill="none" stroke="black" stroke-width="0.8"/>
<rect x="169.55" y="223.80" width="17.00" height="17.00" rx="1.5" ry="1.5" fill="none" stroke="black" stroke-width="0.8"/>
<rect x="187.35" y="223.80" width="17.00" height="17.00" rx="1.5" ry="1.5" fill="none" stroke="black" stroke-width="0.8"/>
<rect x="205.15" y="223.80" width="17.00" height="17.00" rx="1.5" ry="1.5" fill="none" stroke="black" stroke-width="0.8"/>
<rect x="222.95" y="223.80" width="17.00" height="17.00" rx="1.5" ry="1.5" fill="none" stroke="black" stroke-width="0.8"/>
<rect x="240.75" y="223.80" width="17.00" height="17.00" rx="1.5" ry="1.5" fill="none" stroke="black" stroke-width="0.8"/>
<rect x="258.55" y="223.80" width="17.00" height="17.00" rx="1.5" ry="1.5" fill="none" stroke="black" stroke-width="0.8"/>
<rect x="276.35" y="223.80" width="17.00" height="17.00" rx="1.5" ry="1.5" fill="none" stroke="black" stroke-width="0.8"/>
<rect x="294.15" y="223.80" width="17.00" height="17.00" rx="1.5" ry="1.5" fill="none" stroke="black" stroke-width="0.8"/>
<rect x="311.95" y="223.80" width="17.00" height="17.00" rx="1.5" ry="1.5" fill="none" stroke="black" stroke-width="0.8"/>
<rect x="85.00" y="241.60" width="34.80" height="17.00" rx="1.5" ry="1.5" fill="none" stroke="black" stroke-width="0.8"/>
<rect x="120.60" y="241.60" width="17.00" height="17.00" rx="1.5" ry="1.5" fill="none" stroke="black" stroke-width="0.8"/>
<rect x="138.40" y="241.60" width="17.00" height="17.00" rx="1.5" ry="1.5" fill="none" stroke="black" stroke-width="0.8"/>
<rect x="156.20" y="241.60" width="17.00" height="17.00" rx="1.5" ry="1.5" fill="none" stroke="black" stroke-width="0.8"/>
<rect x="174.00" y="241.60" width="17.00" height="17.00" rx="1.5" ry="1.5" fill="none" stroke="black" stroke-width="0.8"/>
<rect x="191.80" y="241.60" width="17.00" height="17.00" rx="1.5" ry="1.5" fill="none" stroke="black" stroke-width="0.8"/>
<rect x="209.60" y="241.60" width="17.00" height="17.00" rx="1.5" ry="1.5" fill="none" stroke="black" stroke-width="0.8"/>
<rect x="227.40" y="241.60" width="17.00" height="17.00" rx="1.5" ry="1.5" fill="none" stroke="black" stroke-width="0.8"/>
<rect x="245.20" y="241.60" width="17.00" height="17.00" rx="1.5" ry="1.5" fill="none" stroke="black" stroke-width="0.8"/>
<rect x="263.00" y="241.60" width="17.00" height="17.00" rx="1.5" ry="1.5" fill="none" stroke="black" stroke-width="0.8"/>
<rect x="280.80" y="241.60" width="17.00" height="17.00" rx="1.5" ry="1.5" fill="none" stroke="black" stroke-width="0.8"/>
<rect x="298.60" y="241.60" width="17.00" height="17.00" rx="1.5" ry="1.5" fill="none" stroke="black" stroke-width="0.8"/>
<rect x="316.40" y="241.60" width="17.00" height="17.00" rx="1.5" ry="1.5" fill="none" stroke="black" stroke-width="0.8"/>
<path d="M331.25,223.80 L349.50,223.80 Q351.00,223.80 351.00,225.30 L351.00,257.10 Q351.00,258.60 349.50,258.60 L335.70,258.60 Q334.20,258.60 334.20,257.10 L334.20,243.10 Q334.20,241.60 335.70,241.60 L329.75,241.60 L329.75,225.30 Q329.75,223.80 331.25,223.80 Z" fill="none" stroke="black" stroke-width="0.8"/>
<rect x="85.00" y="259.40" width="39.25" height="17.00" rx="1.5" ry="1.5" fill="none" stroke="black" stroke-width="0.8"/>
<rect x="125.05" y="259.40" width="17.00" height="17.00" rx="1.5" ry="1.5" fill="none" stroke="black" stroke-width="0.8"/>
<rect x="142.85" y="259.40" width="17.00" height="17.00" rx="1.5" ry="1.5" fill="none" stroke="black" stroke-width="0.8"/>
<rect x="160.65" y="259.40" width="17.00" height="17.00" rx="1.5" ry="1.5" fill="none" stroke="black" stroke-width="0.8"/>
<rect x="178.45" y="259.40" width="17.00" height="17.00" rx="1.5" ry="1.5" fill="none" stroke="black" stroke-width="0.8"/>
<rect x="196.25" y="259.40" width="17.00" height="17.00" rx="1.5" ry="1.5" fill="none" stroke="black" stroke-width="0.8"/>
<rect x="214.05" y="259.40" width="17.00" height="17.00" rx="1.5" ry="1.5" fill="none" stroke="black" stroke-width="0.8"/>
<rect x="231.85" y="259.40" width="17.00" height="17.00" rx="1.5" ry="1.5" fill="none" stroke="black" stroke-width="0.8"/>
<rect x="249.65" y="259.40" width="17.00" height="17.00" rx="1.5" ry="1.5" fill="none" stroke="black" stroke-width="0.8"/>
<rect x="267.45" y="259.40" width="17.00" height="17.00" rx="1.5" ry="1.5" fill="none" stroke="black" stroke-width="0.8"/>
<rect x="285.25" y="259.40" width="17.00" height="17.00" rx="1.5" ry="1.5" fill="none" stroke="black" stroke-width="0.8"/>
<rect x="303.05" y="259.40" width="17.00" height="17.00" rx="1.5" ry="1.5" fill="none" stroke="black" stroke-width="0.8"/>
<rect x="320.85" y="259.40" width="39.25" height="17.00" rx="1.5" ry="1.5" fill="none" stroke="black" stroke-width="0.8"/>
<rect x="85.00" y="277.20" width="25.90" height="17.00" rx="1.5" ry="1.5" fill="none" stroke="black" stroke-width="0.8"/>
<rect x="111.70" y="277.20" width="25.90" height="17.00" rx="1.5" ry="1.5" fill="none" stroke="black" stroke-width="0.8"/>
<rect x="138.40" y="277.20" width="221.70" height="17.00" rx="1.5" ry="1.5" fill="none" stroke="black" stroke-width="0.8"/>
<rect x="384.70" y="206.00" width="17.00" height="17.00" rx="1.5" ry="1.5" fill="none" stroke="black" stroke-width="0.8"/>
<rect x="366.90" y="223.80" width="17.00" height="17.00" rx="1.5" ry="1.5" fill="none" stroke="black" stroke-width="0.8"/>
<rect x="384.70" y="223.80" width="17.00" height="17.00" rx="1.5" ry="1.5" fill="none" stroke="black" stroke-width="0.8"/>
<rect x="402.50" y="223.80" width="17.00" height="17.00" rx="1.5" ry="1.5" fill="none" stroke="black" stroke-width="0.8"/>
<rect x="366.90" y="206.00" width="17.00" height="17.00" rx="1.5" ry="1.5" fill="none" stroke="black" stroke-width="0.8"/>
<rect x="426.30" y="206.00" width="17.00" height="17.00" rx="1.5" ry="1.5" fill="none" stroke="black" stroke-width="0.8"/>
<rect x="444.10" y="206.00" width="17.00" height="17.00" rx="1.5" ry="1.5" fill="none" stroke="black" stroke-width="0.8"/>
<rect x="461.90" y="206.00" width="17.00" height="17.00" rx="1.5" ry="1.5" fill="none" stroke="black" stroke-width="0.8"/>
<rect x="426.30" y="223.80" width="17.00" height="17.00" rx="1.5" ry="1.5" fill="none" stroke="black" stroke-width="0.8"/>
<rect x="444.10" y="223.80" width="17.00" height="17.00" rx="1.5" ry="1.5" fill="none" stroke="black" stroke-width="0.8"/>
<rect x="461.90" y="223.80" width="17.00" height="17.00" rx="1.5" ry="1.5" fill="none" stroke="black" stroke-width="0.8"/>
<rect x="426.30" y="241.60" width="17.00" height="17.00" rx="1.5" ry="1.5" fill="none" stroke="black" stroke-width="0.8"/>
<rect x="444.10" y="241.60" width="17.00" height="17.00" rx="1.5" ry="1.5" fill="none" stroke="black" stroke-width="0.8"/>
<rect x="461.90" y="241.60" width="17.00" height="17.00" rx="1.5" ry="1.5" fill="none" stroke="black" stroke-width="0.8"/>
<rect x="426.30" y="259.40" width="34.80" height="17.00" rx="1.5" ry="1.5" fill="none" stroke="black" stroke-width="0.8"/>
<rect x="461.90" y="259.40" width="17.00" height="17.00" rx="1.5" ry="1.5" fill="none" stroke="black" stroke-width="0.8"/>
<rect x="479.70" y="241.60" width="17.00" height="34.80" rx="1.5" ry="1.5" fill="none" stroke="black" stroke-width="0.8"/>
<rect x="479.70" y="206.00" width="17.00" height="17.00" rx="1.5" ry="1.5" fill="none" stroke="black" stroke-width="0.8"/>
<rect x="479.70" y="223.80" width="17.00" height="17.00" rx="1.5" ry="1.5" fill="none" stroke="black" stroke-width="0.8"/>
</g>
</svg>