<svg xmlns="http://www.w3.org/2000/svg" width="632" height="332" viewBox="0 0 632 332" font-family="Helvetica, Arial, sans-serif">
<rect width="632" height="332" fill="white"/>
<text x="316.0" y="28" text-anchor="middle" font-size="14" font-weight="bold" fill="#C41230">The 27 CPC hardware colours</text>
<rect x="16" y="46" width="28" height="28" rx="3" fill="#000000" stroke="#000000" stroke-width="1"/>
<text x="52" y="58" font-size="11" fill="#4A4A4A" font-family="monospace">0</text>
<text x="52" y="70" font-size="12" fill="#4A4A4A">Black</text>
<rect x="216" y="46" width="28" height="28" rx="3" fill="#00007F" stroke="#00007F" stroke-width="1"/>
<text x="252" y="58" font-size="11" fill="#4A4A4A" font-family="monospace">1</text>
<text x="252" y="70" font-size="12" fill="#4A4A4A">Blue</text>
<rect x="416" y="46" width="28" height="28" rx="3" fill="#0000FF" stroke="#0000FF" stroke-width="1"/>
<text x="452" y="58" font-size="11" fill="#4A4A4A" font-family="monospace">2</text>
<text x="452" y="70" font-size="12" fill="#4A4A4A">Bright Blue</text>
<rect x="16" y="76" width="28" height="28" rx="3" fill="#7F0000" stroke="#7F0000" stroke-width="1"/>
<text x="52" y="88" font-size="11" fill="#4A4A4A" font-family="monospace">3</text>
<text x="52" y="100" font-size="12" fill="#4A4A4A">Red</text>
<rect x="216" y="76" width="28" height="28" rx="3" fill="#7F007F" stroke="#7F007F" stroke-width="1"/>
<text x="252" y="88" font-size="11" fill="#4A4A4A" font-family="monospace">4</text>
<text x="252" y="100" font-size="12" fill="#4A4A4A">Magenta</text>
<rect x="416" y="76" width="28" height="28" rx="3" fill="#7F00FF" stroke="#7F00FF" stroke-width="1"/>
<text x="452" y="88" font-size="11" fill="#4A4A4A" font-family="monospace">5</text>
<text x="452" y="100" font-size="12" fill="#4A4A4A">Mauve</text>
<rect x="16" y="106" width="28" height="28" rx="3" fill="#FF0000" stroke="#FF0000" stroke-width="1"/>
<text x="52" y="118" font-size="11" fill="#4A4A4A" font-family="monospace">6</text>
<text x="52" y="130" font-size="12" fill="#4A4A4A">Bright Red</text>
<rect x="216" y="106" width="28" height="28" rx="3" fill="#FF007F" stroke="#FF007F" stroke-width="1"/>
<text x="252" y="118" font-size="11" fill="#4A4A4A" font-family="monospace">7</text>
<text x="252" y="130" font-size="12" fill="#4A4A4A">Purple</text>
<rect x="416" y="106" width="28" height="28" rx="3" fill="#FF00FF" stroke="#FF00FF" stroke-width="1"/>
<text x="452" y="118" font-size="11" fill="#4A4A4A" font-family="monospace">8</text>
<text x="452" y="130" font-size="12" fill="#4A4A4A">Bright Magenta</text>
<rect x="16" y="136" width="28" height="28" rx="3" fill="#007F00" stroke="#007F00" stroke-width="1"/>
<text x="52" y="148" font-size="11" fill="#4A4A4A" font-family="monospace">9</text>
<text x="52" y="160" font-size="12" fill="#4A4A4A">Green</text>
<rect x="216" y="136" width="28" height="28" rx="3" fill="#007F7F" stroke="#007F7F" stroke-width="1"/>
<text x="252" y="148" font-size="11" fill="#4A4A4A" font-family="monospace">10</text>
<text x="252" y="160" font-size="12" fill="#4A4A4A">Cyan</text>
<rect x="416" y="136" width="28" height="28" rx="3" fill="#007FFF" stroke="#007FFF" stroke-width="1"/>
<text x="452" y="148" font-size="11" fill="#4A4A4A" font-family="monospace">11</text>
<text x="452" y="160" font-size="12" fill="#4A4A4A">Sky Blue</text>
<rect x="16" y="166" width="28" height="28" rx="3" fill="#7F7F00" stroke="#7F7F00" stroke-width="1"/>
<text x="52" y="178" font-size="11" fill="#4A4A4A" font-family="monospace">12</text>
<text x="52" y="190" font-size="12" fill="#4A4A4A">Yellow</text>
<rect x="216" y="166" width="28" height="28" rx="3" fill="#7F7F7F" stroke="#7F7F7F" stroke-width="1"/>
<text x="252" y="178" font-size="11" fill="#4A4A4A" font-family="monospace">13</text>
<text x="252" y="190" font-size="12" fill="#4A4A4A">White</text>
<rect x="416" y="166" width="28" height="28" rx="3" fill="#7F7FFF" stroke="#7F7FFF" stroke-width="1"/>
<text x="452" y="178" font-size="11" fill="#4A4A4A" font-family="monospace">14</text>
<text x="452" y="190" font-size="12" fill="#4A4A4A">Pastel Blue</text>
<rect x="16" y="196" width="28" height="28" rx="3" fill="#FF7F00" stroke="#FF7F00" stroke-width="1"/>
<text x="52" y="208" font-size="11" fill="#4A4A4A" font-family="monospace">15</text>
<text x="52" y="220" font-size="12" fill="#4A4A4A">Orange</text>
<rect x="216" y="196" width="28" height="28" rx="3" fill="#FF7F7F" stroke="#FF7F7F" stroke-width="1"/>
<text x="252" y="208" font-size="11" fill="#4A4A4A" font-family="monospace">16</text>
<text x="252" y="220" font-size="12" fill="#4A4A4A">Pink</text>
<rect x="416" y="196" width="28" height="28" rx="3" fill="#FF7FFF" stroke="#FF7FFF" stroke-width="1"/>
<text x="452" y="208" font-size="11" fill="#4A4A4A" font-family="monospace">17</text>
<text x="452" y="220" font-size="12" fill="#4A4A4A">Pastel Magenta</text>
<rect x="16" y="226" width="28" height="28" rx="3" fill="#00FF00" stroke="#00FF00" stroke-width="1"/>
<text x="52" y="238" font-size="11" fill="#4A4A4A" font-family="monospace">18</text>
<text x="52" y="250" font-size="12" fill="#4A4A4A">Bright Green</text>
<rect x="216" y="226" width="28" height="28" rx="3" fill="#00FF7F" stroke="#00FF7F" stroke-width="1"/>
<text x="252" y="238" font-size="11" fill="#4A4A4A" font-family="monospace">19</text>
<text x="252" y="250" font-size="12" fill="#4A4A4A">Sea Green</text>
<rect x="416" y="226" width="28" height="28" rx="3" fill="#00FFFF" stroke="#00FFFF" stroke-width="1"/>
<text x="452" y="238" font-size="11" fill="#4A4A4A" font-family="monospace">20</text>
<text x="452" y="250" font-size="12" fill="#4A4A4A">Bright Cyan</text>
<rect x="16" y="256" width="28" height="28" rx="3" fill="#7FFF00" stroke="#7FFF00" stroke-width="1"/>
<text x="52" y="268" font-size="11" fill="#4A4A4A" font-family="monospace">21</text>
<text x="52" y="280" font-size="12" fill="#4A4A4A">Lime</text>
<rect x="216" y="256" width="28" height="28" rx="3" fill="#7FFF7F" stroke="#7FFF7F" stroke-width="1"/>
<text x="252" y="268" font-size="11" fill="#4A4A4A" font-family="monospace">22</text>
<text x="252" y="280" font-size="12" fill="#4A4A4A">Pastel Green</text>
<rect x="416" y="256" width="28" height="28" rx="3" fill="#7FFFFF" stroke="#7FFFFF" stroke-width="1"/>
<text x="452" y="268" font-size="11" fill="#4A4A4A" font-family="monospace">23</text>
<text x="452" y="280" font-size="12" fill="#4A4A4A">Pastel Cyan</text>
<rect x="16" y="286" width="28" height="28" rx="3" fill="#FFFF00" stroke="#FFFF00" stroke-width="1"/>
<text x="52" y="298" font-size="11" fill="#4A4A4A" font-family="monospace">24</text>
<text x="52" y="310" font-size="12" fill="#4A4A4A">Bright Yellow</text>
<rect x="216" y="286" width="28" height="28" rx="3" fill="#FFFF7F" stroke="#cccccc" stroke-width="1"/>
<text x="252" y="298" font-size="11" fill="#4A4A4A" font-family="monospace">25</text>
<text x="252" y="310" font-size="12" fill="#4A4A4A">Pastel Yellow</text>
<rect x="416" y="286" width="28" height="28" rx="3" fill="#FFFFFF" stroke="#cccccc" stroke-width="1"/>
<text x="452" y="298" font-size="11" fill="#4A4A4A" font-family="monospace">26</text>
<text x="452" y="310" font-size="12" fill="#4A4A4A">Bright White</text>
</svg>