<svg xmlns="http://www.w3.org/2000/svg" width="590" height="346" viewBox="0 0 590 346" font-family="Helvetica, Arial, sans-serif">
<rect width="590" height="346" fill="white"/>
<text x="295.0" y="30" text-anchor="middle" font-size="14" font-weight="bold" fill="#C41230">The three screen modes</text>
<text x="20" y="80" font-size="17" font-weight="bold" fill="#4A4A4A">Mode 0</text>
<text x="20" y="100" font-size="13" fill="#4A4A4A" font-family="monospace">160 × 200</text>
<text x="20" y="118" font-size="12.5" fill="#C41230">16 inks</text>
<rect x="240.00" y="56" width="40.00" height="56" fill="#000080" stroke="#ffffff" stroke-width="0.4"/>
<rect x="280.00" y="56" width="40.00" height="56" fill="#FFFF00" stroke="#ffffff" stroke-width="0.4"/>
<rect x="320.00" y="56" width="40.00" height="56" fill="#00FFFF" stroke="#ffffff" stroke-width="0.4"/>
<rect x="360.00" y="56" width="40.00" height="56" fill="#FF0000" stroke="#ffffff" stroke-width="0.4"/>
<rect x="400.00" y="56" width="40.00" height="56" fill="#FFFFFF" stroke="#ffffff" stroke-width="0.4"/>
<rect x="440.00" y="56" width="40.00" height="56" fill="#000000" stroke="#ffffff" stroke-width="0.4"/>
<rect x="480.00" y="56" width="40.00" height="56" fill="#0000FF" stroke="#ffffff" stroke-width="0.4"/>
<rect x="520.00" y="56" width="40.00" height="56" fill="#FF00FF" stroke="#ffffff" stroke-width="0.4"/>
<rect x="240" y="56" width="320" height="56" fill="none" stroke="#4A4A4A" stroke-width="1.2"/>
<text x="20" y="170" font-size="17" font-weight="bold" fill="#4A4A4A">Mode 1</text>
<text x="20" y="190" font-size="13" fill="#4A4A4A" font-family="monospace">320 × 200</text>
<text x="20" y="208" font-size="12.5" fill="#C41230">4 inks</text>
<rect x="240.00" y="146" width="20.00" height="56" fill="#000080" stroke="#ffffff" stroke-width="0.4"/>
<rect x="260.00" y="146" width="20.00" height="56" fill="#FFFF00" stroke="#ffffff" stroke-width="0.4"/>
<rect x="280.00" y="146" width="20.00" height="56" fill="#00FFFF" stroke="#ffffff" stroke-width="0.4"/>
<rect x="300.00" y="146" width="20.00" height="56" fill="#FF0000" stroke="#ffffff" stroke-width="0.4"/>
<rect x="320.00" y="146" width="20.00" height="56" fill="#000080" stroke="#ffffff" stroke-width="0.4"/>
<rect x="340.00" y="146" width="20.00" height="56" fill="#FFFF00" stroke="#ffffff" stroke-width="0.4"/>
<rect x="360.00" y="146" width="20.00" height="56" fill="#00FFFF" stroke="#ffffff" stroke-width="0.4"/>
<rect x="380.00" y="146" width="20.00" height="56" fill="#FF0000" stroke="#ffffff" stroke-width="0.4"/>
<rect x="400.00" y="146" width="20.00" height="56" fill="#000080" stroke="#ffffff" stroke-width="0.4"/>
<rect x="420.00" y="146" width="20.00" height="56" fill="#FFFF00" stroke="#ffffff" stroke-width="0.4"/>
<rect x="440.00" y="146" width="20.00" height="56" fill="#00FFFF" stroke="#ffffff" stroke-width="0.4"/>
<rect x="460.00" y="146" width="20.00" height="56" fill="#FF0000" stroke="#ffffff" stroke-width="0.4"/>
<rect x="480.00" y="146" width="20.00" height="56" fill="#000080" stroke="#ffffff" stroke-width="0.4"/>
<rect x="500.00" y="146" width="20.00" height="56" fill="#FFFF00" stroke="#ffffff" stroke-width="0.4"/>
<rect x="520.00" y="146" width="20.00" height="56" fill="#00FFFF" stroke="#ffffff" stroke-width="0.4"/>
<rect x="540.00" y="146" width="20.00" height="56" fill="#FF0000" stroke="#ffffff" stroke-width="0.4"/>
<rect x="240" y="146" width="320" height="56" fill="none" stroke="#4A4A4A" stroke-width="1.2"/>
<text x="20" y="260" font-size="17" font-weight="bold" fill="#4A4A4A">Mode 2</text>
<text x="20" y="280" font-size="13" fill="#4A4A4A" font-family="monospace">640 × 200</text>
<text x="20" y="298" font-size="12.5" fill="#C41230">2 inks</text>
<rect x="240.00" y="236" width="10.00" height="56" fill="#000080" stroke="#ffffff" stroke-width="0.4"/>
<rect x="250.00" y="236" width="10.00" height="56" fill="#FFFF00" stroke="#ffffff" stroke-width="0.4"/>
<rect x="260.00" y="236" width="10.00" height="56" fill="#000080" stroke="#ffffff" stroke-width="0.4"/>
<rect x="270.00" y="236" width="10.00" height="56" fill="#FFFF00" stroke="#ffffff" stroke-width="0.4"/>
<rect x="280.00" y="236" width="10.00" height="56" fill="#000080" stroke="#ffffff" stroke-width="0.4"/>
<rect x="290.00" y="236" width="10.00" height="56" fill="#FFFF00" stroke="#ffffff" stroke-width="0.4"/>
<rect x="300.00" y="236" width="10.00" height="56" fill="#000080" stroke="#ffffff" stroke-width="0.4"/>
<rect x="310.00" y="236" width="10.00" height="56" fill="#FFFF00" stroke="#ffffff" stroke-width="0.4"/>
<rect x="320.00" y="236" width="10.00" height="56" fill="#000080" stroke="#ffffff" stroke-width="0.4"/>
<rect x="330.00" y="236" width="10.00" height="56" fill="#FFFF00" stroke="#ffffff" stroke-width="0.4"/>
<rect x="340.00" y="236" width="10.00" height="56" fill="#000080" stroke="#ffffff" stroke-width="0.4"/>
<rect x="350.00" y="236" width="10.00" height="56" fill="#FFFF00" stroke="#ffffff" stroke-width="0.4"/>
<rect x="360.00" y="236" width="10.00" height="56" fill="#000080" stroke="#ffffff" stroke-width="0.4"/>
<rect x="370.00" y="236" width="10.00" height="56" fill="#FFFF00" stroke="#ffffff" stroke-width="0.4"/>
<rect x="380.00" y="236" width="10.00" height="56" fill="#000080" stroke="#ffffff" stroke-width="0.4"/>
<rect x="390.00" y="236" width="10.00" height="56" fill="#FFFF00" stroke="#ffffff" stroke-width="0.4"/>
<rect x="400.00" y="236" width="10.00" height="56" fill="#000080" stroke="#ffffff" stroke-width="0.4"/>
<rect x="410.00" y="236" width="10.00" height="56" fill="#FFFF00" stroke="#ffffff" stroke-width="0.4"/>
<rect x="420.00" y="236" width="10.00" height="56" fill="#000080" stroke="#ffffff" stroke-width="0.4"/>
<rect x="430.00" y="236" width="10.00" height="56" fill="#FFFF00" stroke="#ffffff" stroke-width="0.4"/>
<rect x="440.00" y="236" width="10.00" height="56" fill="#000080" stroke="#ffffff" stroke-width="0.4"/>
<rect x="450.00" y="236" width="10.00" height="56" fill="#FFFF00" stroke="#ffffff" stroke-width="0.4"/>
<rect x="460.00" y="236" width="10.00" height="56" fill="#000080" stroke="#ffffff" stroke-width="0.4"/>
<rect x="470.00" y="236" width="10.00" height="56" fill="#FFFF00" stroke="#ffffff" stroke-width="0.4"/>
<rect x="480.00" y="236" width="10.00" height="56" fill="#000080" stroke="#ffffff" stroke-width="0.4"/>
<rect x="490.00" y="236" width="10.00" height="56" fill="#FFFF00" stroke="#ffffff" stroke-width="0.4"/>
<rect x="500.00" y="236" width="10.00" height="56" fill="#000080" stroke="#ffffff" stroke-width="0.4"/>
<rect x="510.00" y="236" width="10.00" height="56" fill="#FFFF00" stroke="#ffffff" stroke-width="0.4"/>
<rect x="520.00" y="236" width="10.00" height="56" fill="#000080" stroke="#ffffff" stroke-width="0.4"/>
<rect x="530.00" y="236" width="10.00" height="56" fill="#FFFF00" stroke="#ffffff" stroke-width="0.4"/>
<rect x="540.00" y="236" width="10.00" height="56" fill="#000080" stroke="#ffffff" stroke-width="0.4"/>
<rect x="550.00" y="236" width="10.00" height="56" fill="#FFFF00" stroke="#ffffff" stroke-width="0.4"/>
<rect x="240" y="236" width="320" height="56" fill="none" stroke="#4A4A4A" stroke-width="1.2"/>
<text x="295.0" y="340" text-anchor="middle" font-size="11" fill="#4A4A4A">All three modes use 80 bytes per scan line — colour is traded for resolution.</text>
</svg>